<svg aria-hidden="true" style="position: absolute; width: 0; height: 0; overflow: hidden;" version="1.1" xmlns="http://www.w3.org/2000/svg" xmlns:xlink="http://www.w3.org/1999/xlink">
<defs>
<symbol id="icon-heart-outline" viewBox="0 0 24 24">
<path d="M12 20c-0.195 0-0.391-0.057-0.561-0.172-0.225-0.151-5.508-3.73-7.146-5.371-1.831-1.831-2.043-3.777-2.043-5.082 0-2.964 2.411-5.375 5.375-5.375 1.802 0 3.398 0.891 4.375 2.256 0.977-1.365 2.573-2.256 4.375-2.256 2.964 0 5.375 2.411 5.375 5.375 0 1.305-0.212 3.251-2.043 5.082-1.641 1.641-6.923 5.22-7.146 5.371-0.17 0.115-0.366 0.172-0.561 0.172zM7.625 6c-1.861 0-3.375 1.514-3.375 3.375 0 1.093 0.173 2.384 1.457 3.668 1.212 1.212 4.883 3.775 6.293 4.746 1.41-0.971 5.081-3.534 6.293-4.746 1.284-1.284 1.457-2.575 1.457-3.668 0-1.861-1.514-3.375-3.375-3.375s-3.375 1.514-3.375 3.375c0 0.552-0.447 1-1 1s-1-0.448-1-1c0-1.861-1.514-3.375-3.375-3.375z"></path>
</symbol>
<symbol id="icon-heart" viewBox="0 0 24 24">
<path d="M12 10.375c0-2.416-1.959-4.375-4.375-4.375s-4.375 1.959-4.375 4.375c0 1.127 0.159 2.784 1.75 4.375s7 5.25 7 5.25 5.409-3.659 7-5.25 1.75-3.248 1.75-4.375c0-2.416-1.959-4.375-4.375-4.375s-4.375 1.959-4.375 4.375z"></path>
</symbol>
<symbol id="icon-active" viewBox="0 0 32 32">
<path fill="#3470ff" style="fill: var(--color1, #3470ff); stroke: var(--color1, #3470ff)" stroke="#3470ff" stroke-linejoin="round" stroke-linecap="round" stroke-miterlimit="4" stroke-width="1.7778" d="M27.787 6.147c-0.681-0.681-1.49-1.222-2.38-1.591s-1.844-0.559-2.807-0.559c-0.963 0-1.917 0.19-2.807 0.559s-1.698 0.909-2.38 1.591l-1.413 1.413-1.413-1.413c-1.376-1.376-3.241-2.148-5.187-2.148s-3.811 0.773-5.187 2.148c-1.376 1.376-2.148 3.241-2.148 5.187s0.773 3.811 2.148 5.187l11.787 11.787 11.787-11.787c0.681-0.681 1.222-1.49 1.591-2.38s0.559-1.844 0.559-2.807c0-0.963-0.19-1.917-0.559-2.807s-0.909-1.699-1.591-2.38z"></path>
</symbol>
<symbol id="icon-normal" viewBox="0 0 32 32">
<path fill="none" stroke="#fff" style="stroke: var(--color2, #fff)" stroke-linejoin="round" stroke-linecap="round" stroke-miterlimit="4" stroke-width="2.6667" d="M27.787 6.147c-0.681-0.681-1.49-1.222-2.38-1.591s-1.844-0.559-2.807-0.559c-0.963 0-1.917 0.19-2.807 0.559s-1.698 0.909-2.38 1.591l-1.413 1.413-1.413-1.413c-1.376-1.376-3.241-2.148-5.187-2.148s-3.811 0.773-5.187 2.148c-1.376 1.376-2.148 3.241-2.148 5.187s0.773 3.811 2.148 5.187l11.787 11.787 11.787-11.787c0.681-0.681 1.222-1.49 1.591-2.38s0.559-1.844 0.559-2.807c0-0.963-0.19-1.917-0.559-2.807s-0.909-1.699-1.591-2.38z"></path>
</symbol>
</defs>
<symbol id="icon-close" viewBox="0 0 20 20">
<path d="M10 8.586l-7.071-7.071-1.414 1.414 7.071 7.071-7.071 7.071 1.414 1.414 7.071-7.071 7.071 7.071 1.414-1.414-7.071-7.071 7.071-7.071-1.414-1.414-7.071 7.071z"></path>
</symbol>
</svg>
